<svg width="200mm" height="200mm" viewBox="0 0 200 200" xml:space="preserve" xmlns="http://www.w3.org/2000/svg"><path d="M40.484646 79.542867q.115944-.182077.2819-.102645l3.78951 1.468226q-.335075-.931884.0014-1.800313l.158038-.407899q.753194-1.826829 2.528017-1.759645.535691.101618.943589.259656l3.710562 1.437637q.954612.309327.772594 1.404062-.321175.828956-.392547 1.013168l-.01529.03947q-.04078.105264-.146048.06448l-4.894783-1.896457q-1.241126-.390069-1.638771.636257-.400606.994911.275893 1.514282l5.026364 1.947438q.210528.08157.308558.180082.103129.08536.0084.290786l-.634288 1.676167q-.10065.142602-.266606.06317l-8.500082-3.293311q-.731751-.298646-1.599638.379021-.149836-.04292-.157412-.25772.284604-2.023515.440648-2.855916zm9.915717-4.113432q-.767893-.475342-1.262686-1.096953-.487366-.633609-.668495-1.359781-.173701-.73817-.0246-1.542051.137108-.811308.649586-1.639191.512478-.827884 1.177511-1.312394.653035-.491937 1.383778-.65364.73817-.173702 1.515198-.008.784455.153677 1.552347.629019.767892.475342 1.255258 1.108951.494794.621611.668495 1.359782.181129.726172.03202 1.530052-.137107.811308-.649585 1.639192-.512479.827883-1.177512 1.312393-.653034.491937-1.391205.665639-.730743.161703-1.515198.008-.777027-.165675-1.544919-.641017zm1.262627-2.039713q1.13984.705586 2.02542.72271.873582.0097 1.296934-.674207.423351-.683904.02511-1.461492-.410238-.785017-1.550078-1.490603-1.139839-.705586-2.013421-.715283-.88558-.01712-1.308932.66678-.423352.683904-.01311 1.46892.39824.777589 1.538079 1.483175zm3.650266-17.421682.08593-.09352q.116255-.08481.228868-.01967l8.146502 7.485102q.32212.295967.0166.628477l-2.711439 2.951029q-1.336626 1.454732-3.6543.494177-.666132-.401255-1.029815-.735411l-.529937-.486914q-1.901544-1.74716-1.211688-3.853641.264218-.600412.693848-1.068004.78288-.852058 1.73823-.932428l-1.330041-1.222058q-.737757-.67786-1.804301-.393045l-.03117-.02864q-.197428-.181399-.02726-.408312zm2.469775 8.803888q1.963888 1.804444 3.042736.630267l.735144-.800103q.07638-.08313.0036-.149959l-3.595268-3.303374q-.722839-.08926-1.286131.523807l-.114568.124691q-.92609 1.007922 1.214445 2.974671zm7.125959-12.097166q2.089818-1.375101 3.533574-.02154.381693.419635.566694.668935l2.138846 2.858533q.692831.838911.136138 1.533178-.536952.697189-1.029346.957155-.09065.06727-.149519-.01205l-2.976837-4.011456q-.941824-1.26916-1.905026-.554383-.645912.479321-.667036 1.303313l3.044111 4.102107q.57218.700007.04507 1.12631-1.062266.770718-1.220911.888446-.110395.06435-.21715-.03215l-3.304791-4.453392q-.479321-.645912-1.574917-.535771l-.03364-.04533q-.08958-.14439.06942-.332673 1.422267-1.635321 1.856156-2.045164.113318-.08409.220073.01241.176592.237967.311139.419276.194741-1.110979 1.157943-1.825756zm6.802888.114871q-.390439-.81435-.472012-1.604645-.06885-.796396.170124-1.505639.251697-.715343.810692-1.311985.552894-.609366 1.430865-1.030308.87797-.420943 1.699292-.470443.81522-.06222 1.517839.195572.715344.251697 1.280437.810169.577817.552371.968256 1.36672.39044.81435.459288 1.610746.08157.790295-.170124 1.505638-.238973.709243-.797967 1.305885-.552894.609366-1.430865 1.030309-.877971.420942-1.699292.470443-.815221.06222-1.530564-.189472-.70262-.257798-1.280437-.810169-.565092-.558471-.955532-1.372821zm2.163117-1.037105q.579558 1.2088 1.316166 1.700688.730508.479164 1.455788.131429t.809123-1.217338q.07774-.882328-.501817-2.091128-.579559-1.2088-1.310066-1.687964-.736609-.491888-1.461889-.144153t-.803022 1.230063q-.08384.869603.495717 2.078403zm10.369626-8.256026q2.820791-.758528 3.906025 1.375302.15711.366899.223069.612185.07959.241622-.07661.312849l-1.389955.373767q-.123674-.02519-.187572-.154134-.673446-1.689292-2.152492-1.320792-1.587604.616878-.918625 3.213338.524007 1.948663 2.235628 1.955994 1.707956-.0063 2.548481-1.445146.08806-.05291.180816-.03401.227422.08497.470532.282617.12104.06974.09951.207039-.765176 1.827736-2.904617 2.403045-2.232196.556414-3.447746-.431832-1.205588-1.005537-1.52061-2.557413-.648709-3.770903 2.934164-4.792809zm9.700519-.69737q-.491961.0436-.825379.59731-.334664.539652-.226281 1.762524l2.797144-.24791q-.05251-1.071993-.554626-1.62248-.50336-.564543-1.190858-.489444zm-.07938-1.055446q2.740921-.242927 3.880046 2.220234.340565.805634.324395 1.742051.04146.307986-.225601.331656l-4.790605.452922q-.100884-.01939-.06031.118677.1486 1.516802 1.694055 1.69149 1.545455.174688 2.796063-.899469.03843-.0459.09715-.02278.179884.111555.413148.345876.09181.07686.04181.152125-1.316068 1.774113-3.44849 1.849777-2.637193.134568-3.800694-2.283933-.17758-.565084-.218691-1.028932l-.048586-.54818q.117169-3.792818 3.346312-4.121514zm11.467998-.009q2.47444.367978 2.64841 2.339344.005.567239-.0235.876393l-.31107 3.556559q-.0427 1.08718-.9205 1.233632-.86499.161789-1.40533.02736-.11241-.01028-.10342-.108647l.45491-4.974573q.14392-1.573876-1.05054-1.683105-.80099-.07325-1.36599.526904l-.46519 5.086992q-.0401.903213-.71717.869636-1.30559-.133562-1.50233-.151553-.12519-.02562-.14044-.168712l.50502-5.522619q.0733-.800991-.81686-1.449188l.005-.05621q.0295-.167344.2735-.201708 2.15028-.270975 2.74691-.287265.14052.01285.15578.155945-.027.295102-.0476.519942.88572-.698353 2.08018-.589124zm6.74228-1.362031q-.11087.466792.0927.892228.28985.48945.85275.623146.53544.127174 1.00069-.182928.41428-.278697.53888-.742228.1004-.483781-.14432-.919001-.27286-.499918-.80503-.640821-.49751-.103662-.93273.141055-.47246.279383-.6029.828549zm1.84105 2.873891q.10005.06727.0805.149649l-1.50327 6.329144q-.26533 1.300324-2.18741.843802-.46353-.124599-.42766-.27562l1.17391-4.942498q.30326-1.276812-.57437-1.978386.0345-.267376.36005-.233564 2.6566.05083 3.07826.107473zm2.54082.850806 2.96463 1.136479q.2767.106071.26593.44953-.83822-.336441-.91509.691959l-.0451 4.13864-.005.01318 2.71148-3.328055q.26594-.45721-.27669-1.012812l.0202-.05271q.15483-.167336.40517-.07137l2.21359.848571q.32941.126275.19303.482031-.72579-.353789-1.33695.333781l-4.42155 5.226505q-.0931.0852-.20664.02657l-1.119988-.429351q-.0922-.03536-.11969-.121442l-.15254-6.934628q-.1166-.99678-.68625-1.245377l.0202-.0527q.22158-.262643.49125-.09882zm8.44687 10.825723q.46154.27297.91604.197493.46168-.08762.72029-.524873l.79018-1.336042q-.24018-.09286-.53834-.170841-.29817-.07798-.5864-.117296-.56211-.102929-.97966.07638-.40539.18649-.63526.575157-.23705.400813-.15988.741556.0965.335781.47303.558468zm3.81961-5.626647q1.97977 1.1709 1.63559 3.000239-.0653.387626-.32117.87568l-1.23556 2.089085q-1.17089 1.979772-.60292 2.627182.12146.07183.0712.156855l-.0287.04858q-.0431.07287-.20766.07391l-1.0324-.610591q-.91093-.538758-.66642-1.672903l.0215-.03644-.0486-.02873q-1.1693.701959-2.43247-.04512-2.30053-1.376998-1.21583-3.21102 1.15431-1.924005 5.22567-.270217l.28015-.473688q.60563-1.051725-.17-1.62522l-.23077-.136485q-.98003-.366495-1.62484.612876-.12212.20648-.26068.108133l-1.17815-.696793q-.10435-.04532-.0546-.212622l.14367-.242917q.79736-1.348188 2.77297-.835525.55271.14655 1.16.505721zm9.79679 6.743807q.25277.137643.003.480597-.75675 1.169779-1.3106 1.920659-.14655.153381-.27471.06468l-.42232-.352868q.31456-1.520866-.67262-2.3641-.86985-.763585-1.32225-.222154-.51395.637107.84887 2.989464.83101 1.448289-.0757 2.621484-1.4929 1.786721-3.99431-.303342-1.69995-1.530731-1.56741-3.405956.02-.111992.1375-.142553l.58547-.06247q.14091.0074.14611.177252.2801 1.337357.79424 1.932448.49427.596872 1.02502.930008.5705.329574.92158-.112618.37097-.443973-.9714-3.238955-.60645-1.849092.39743-2.720434 1.31508-1.199762 3.18694.125224.90069.660641 1.37999 1.649557.49056.66733 1.18518.03407zm6.28552 6.576398q.2295.173683-.0685.475704-.9222 1.044313-1.5815 1.704537-.16772.129897-.28127.02314l-.36518-.411716q.5371-1.457222-.31379-2.437813-.7467-.884386-1.27454-.416207-.60293.553645.39513 3.082426.60652 1.555713-.46449 2.581117-1.74187 1.544992-3.90486-.893633-1.45356-1.766387-1.04378-3.601086.0364-.107772.15716-.120533l.58824.02524q.13825.02827.11815.197.0782 1.364133.49821 2.029031.40007.663704.8754 1.072022.51518.410705.92809.0256.43283-.383907-.47921-3.347357-.3249-1.91869.79734-2.631151 1.47879-.990982 3.13293.597496.7925.787171 1.1195 1.83634.38593.732829 1.16695.209843zm-4.10414 6.39202q.49696-.348157 1.02761-.254724.53065.09343.9031.625061.37245.531628.27901 1.06228-.0934.530653-.59039.878809-.49695.348156-1.02761.254723-.53065-.09343-.90309-.62506-.37245-.531629-.27902-1.062281.0934-.530652.59039-.878808zm12.59003.895241q.0764.135112-.064.230753l-2.92333 1.653261-4.91316 2.778591q-.64938.399676-.68081.774097-.0314.374421.22772.746634.23135.323082.35478.512662.078.166624-.13079.284714-.18958.123427-.40966.02093-1.15537-.351698-1.57216-1.088672l-.13199-.233375q-1.00029-1.768737 1.1615-2.991317l6.19058-3.501025q.63871-.361217.69079-1.444411l.0369-.02084q.16501-.109534.32529.05921 1.63325 1.913327 1.83843 2.218789zm-4.82655 6.402845q.84221-.326017 1.63645-.345969.79934-.0068 1.48788.286539.69364.306491 1.24506.910133.56459.598548.91608 1.506558.35149.90801.33705 1.730694-.001.817591-.31285 1.498068-.3065.693636-.90717 1.213651-.59557.533174-1.43778.859192-.84222.326017-1.64155.332809-.79425.01995-1.48788-.286539-.68855-.293331-1.23997-.896973-.56459-.598548-.91608-1.506558-.35149-.90801-.33705-1.730695.001-.81759.30776-1.511227.31159-.680476.90716-1.213651.60067-.520015 1.44289-.846032zm.86598 2.237126q-1.25016.483932-1.79777 1.180115-.53445.691089-.24409 1.441184.29036.750095 1.15083.901218.87362.146029 2.12378-.337903 1.25016-.483932 1.78461-1.175021.54761-.696183.25725-1.446278-.29036-.750095-1.16399-.896124-.86046-.151123-2.11062.332809zm10.39522 8.31478q.0352.151177-.12651.203326l-3.27093.761705-5.49735 1.280177q-.73574.200311-.87148.550672-.13574.35036.008.780547.13085.375213.1958.591907.0279.181864-.20578.236271-.21669.06495-.39893-.09545-1.00929-.663263-1.20131-1.487865l-.0608-.261124q-.46087-1.979046 1.95797-2.542324l6.92666-1.613023q.71465-.166423 1.0701-1.19096l.0412-.0096q.18921-.05855.29539.148543 1.02735 2.296275 1.13805 2.647202z" style="font-size:14.1111px;font-family:HYWenHei;-inkscape-font-specification:HYWenHei;fill:#fff;stroke:#fff;stroke-width:.264583" transform="matrix(1.00314 0 0 .97576 -.55681879 2.2201114)" aria-label="hodnocenivass.lol"/><path style="fill:#fff;stroke-width:3.14944;stroke:#fff" d="M95.760571 196.41738c-8.073314-1.36359-12.852094-5.16002-17.063414-13.55571-7.122528-14.19947-18.981337-21.94204-43.67788-28.51712-25.5916724-6.81339-30.5713298-19.47356-18.515372-47.07314 7.768121-17.783432 7.644455-16.680308 4.670867-41.664442-3.268787-27.4644 6.21006-39.891524 27.300766-35.792331 17.330534 3.368361 29.73327-1.033951 46.936993-16.660135C113.3992-3.1828178 124.15661-.8060935 135.10195 21.923405c8.20039 17.029193 11.06521 19.118874 29.54596 21.551781 23.97994 3.156842 31.76453 20.786083 19.04102 43.120756-9.67054 16.975538-9.49976 20.506978 1.76025 36.393058 8.24155 11.62752 2.73852 24.29273-11.06273 25.46086-18.60256 1.57449-24.92598 6.03495-35.60082 25.11228-11.67323 20.86173-22.0844 26.39219-43.025059 22.85524zm22.678039-7.37531c5.45691-2.60629 9.10809-6.80623 14.58241-16.77407 2.6429-4.81226 6.14768-10.62445 7.7884-12.91597 2.98313-4.16646 2.98313-4.16646-1.18329-1.14429-17.37002 12.59943-41.244724 16.14522-63.170975 9.38191-1.091076-.33652-.673174.62812 1.512713 3.49179 1.661154 2.17621 3.977767 5.84625 5.148017 8.15564 3.886655 7.66995 5.302721 8.96915 12.762547 11.70929 3.286484 1.20719 18.784468-.10106 22.560178-1.9043zm-3.00793-25.56746c76.36049-20.7608 54.49604-136.744467-23.968817-127.146649C16.820344 45.458105 15.287711 153.0922 89.628767 165.06309c4.70137.75703 20.826113-.23558 25.801913-1.58848zm-23.921007-14.52779c-37.894997-6.75345-54.345609-50.471799-29.990121-79.700334C86.598304 39.14996 137.30739 51.049725 146.28779 89.13884c7.88984 33.46363-21.64682 65.71244-54.778117 59.80798zm16.202107-5.92477c33.36889-6.90757 45.63109-48.350049 21.55701-72.855863-26.60443-27.081486-73.388237-7.677154-73.388237 30.438923 0 27.38136 25.12745 47.9448 51.831227 42.41694zm-62.154292 3.78363c-10.798937-12.65626-16.384301-27.39409-16.619635-43.85338-.07656-5.354534-.345492-9.479321-.597637-9.16619-.252143.313159-1.342485 2.819213-2.422986 5.569081-1.0805 2.749839-3.639124 8.749529-5.685831 13.332629-7.991326 17.89457-4.26465 30.2091 10.444725 34.51384 3.092174.90493 8.621976 2.5646 12.288449 3.68816 3.666473 1.12357 6.958637 2.08102 7.315914 2.12768.357278.0466-1.768076-2.74864-4.722999-6.21182zm119.483952-2.84878c2.97902-.46282 6.67214-.84426 8.20696-.84774 4.56468-.009 8.16311-2.21938 9.64397-5.92038 1.94469-4.8602 1.7858-5.41359-4.0362-14.057-10.0567-14.9304-10.48993-20.23513-2.79137-34.180807 9.18865-16.644955 9.65544-18.60076 6.40995-26.854632-3.77977-9.612651-6.84669-11.793203-18.39887-13.081344-20.07824-2.238851-25.11246-5.972773-34.43279-25.539072-8.68658-18.2359538-14.96194-19.5341288-30.259764-6.259798-7.659551 6.646385-12.367722 10.148513-18.781421 13.970333-2.446864 1.458053-2.85719 1.926059-1.389256 1.584575C146.47473 17.123826 195.8594 89.669448 154.68641 143.6413c-4.5427 5.95482-4.5427 5.95482.19809 3.5559 2.60739-1.31939 7.17804-2.77752 10.15706-3.2403zM31.715411 79.772898C36.9304 62.386284 47.942596 48.74248 64.525454 39.122125c5.503335-3.192694 5.503335-3.192694-1.779113-2.888513-4.00534.167298-10.844735-.205281-15.198679-.827963-18.51245-2.647561-23.684689 5.645231-20.500918 32.869664.7344 6.279841 1.36065 13.591954 1.391667 16.249149.0633 5.421824.350446 5.005451 3.277-4.751564z"/><ellipse style="fill:none;stroke:none;stroke-width:.253352" cx="-123.04752" cy="-69.225647" rx="51.450878" ry="52.109711" transform="rotate(-163.846) skewX(.165)"/><path style="font-size:70.5556px;font-family:HYWenHei;-inkscape-font-specification:HYWenHei;white-space:pre;inline-size:111.709;stroke-width:.264583;fill:#fff" d="M94.496036 41.412337H129.3505q1.27.07056 1.62278 1.058334.98778 6.138338 1.34056 7.902228.0705 1.340556-1.12889 1.622779-1.55222-3.386669-6.20889-3.52778h-16.08668v16.510011h19.33223q.56445.07055.56445.564444v5.573893q0 .635001-.56445.635001h-19.33223v15.24001q0 9.031117-11.218342 10.865563h-.282223q-.635 0-.635-.564445V50.231788q-.141111-4.938893-4.868337-7.337783 0-1.481668 2.610558-1.481668z" transform="translate(-12.101618 30.365422)" aria-label="F"/></svg>